<svg width="516" height="497" viewBox="0 0 516 497" fill="none" xmlns="http://www.w3.org/2000/svg">
<path d="M25.7147 255.861C25.7156 246.783 30.4509 238.363 38.2074 233.648L123.567 181.749C140.894 171.214 163.074 183.687 163.074 203.965V238.699C163.074 246.537 159.539 253.956 153.452 258.893L90.5457 309.911C76.354 321.421 78.1494 343.594 94.0081 352.67L244.535 438.823C252.536 443.402 262.364 443.402 270.365 438.823L420.882 352.676C436.74 343.6 438.536 321.427 424.344 309.918L361.43 258.893C355.343 253.956 351.808 246.537 351.808 238.699V203.965C351.808 183.687 373.989 171.214 391.315 181.749L476.675 233.648C484.431 238.363 489.167 246.783 489.168 255.861L489.177 352.631C489.178 356.589 484.587 358.776 481.514 356.284V356.284C477.459 352.996 471.867 357.775 474.483 362.292L494.775 397.325C498.148 403.148 496.15 410.603 490.318 413.959L360.024 488.941C352.167 493.463 342.522 493.565 334.57 489.211L269.937 453.824C262.157 449.565 252.743 449.565 244.964 453.824L180.331 489.211C172.379 493.565 162.734 493.463 154.876 488.941L24.5873 413.962C18.7525 410.604 16.7541 403.146 20.1283 397.32L40.4177 362.292C43.0373 357.769 37.4375 352.984 33.3783 356.276V356.276C30.3008 358.772 25.7045 356.581 25.7049 352.619L25.7147 255.861Z" fill="url(#paint0_linear_115_2058)"/>
<path fill-rule="evenodd" clip-rule="evenodd" d="M263.045 1.33975C259.951 -0.446583 256.139 -0.446581 253.045 1.33975L93.2181 93.616C93.1952 93.6292 93.1692 93.6362 93.1427 93.6362H93.062C93.0234 93.6362 92.9921 93.6675 92.9921 93.7061V93.7451C92.9921 93.7459 92.9916 93.7467 92.9909 93.7471V93.7471C92.9898 93.7478 92.9894 93.7492 92.99 93.7503L92.9914 93.7527C92.9918 93.7534 92.9921 93.7543 92.9921 93.7552V272.828C92.9921 277.256 90.0796 281.157 85.8338 282.415L7.79498 305.546C3.5492 306.804 0.636702 310.705 0.636719 315.133L0.637087 413.222C0.637116 420.851 8.83673 425.67 15.5022 421.959L178.863 330.99C178.874 330.984 178.886 330.981 178.899 330.981V330.981C178.94 330.981 178.973 330.948 178.973 330.907V149.161C178.973 145.588 180.879 142.287 183.973 140.501L253.045 100.622C256.139 98.8354 259.951 98.8354 263.045 100.622L332.122 140.503C335.216 142.29 337.122 145.591 337.122 149.164V330.911C337.122 330.95 337.154 330.981 337.192 330.981V330.981C337.204 330.981 337.216 330.984 337.227 330.99L500.588 421.959C507.254 425.67 515.453 420.851 515.453 413.222L515.454 315.133C515.454 310.705 512.541 306.804 508.295 305.546L430.261 282.417C426.015 281.158 423.103 277.257 423.103 272.829V93.7905C423.103 93.7053 423.034 93.6362 422.949 93.6362V93.6362C422.922 93.6362 422.895 93.629 422.871 93.6155L263.045 1.33975Z" fill="url(#paint1_linear_115_2058)"/>
<defs>
<linearGradient id="paint0_linear_115_2058" x1="257.45" y1="157.729" x2="257.45" y2="515.685" gradientUnits="userSpaceOnUse">
<stop stop-color="#635BA9"/>
<stop offset="1" stop-color="#796FD3"/>
</linearGradient>
<linearGradient id="paint1_linear_115_2058" x1="258.045" y1="-1.2373" x2="258.045" y2="428.836" gradientUnits="userSpaceOnUse">
<stop offset="0.373899" stop-color="#93B3FF"/>
<stop offset="1" stop-color="#AAC5FF"/>
</linearGradient>
</defs>
</svg>
