<svg width="492" height="487" viewBox="0 0 492 487" fill="none" xmlns="http://www.w3.org/2000/svg">
<path fill-rule="evenodd" clip-rule="evenodd" d="M152.383 148.83L15.6099 232.258L15.5977 353.391L152.383 242.094L152.383 148.83ZM340.316 148.83L477.088 232.258L477.101 353.391L340.316 242.094L340.316 148.83Z" fill="#2E3D5F"/>
<path fill-rule="evenodd" clip-rule="evenodd" d="M246.353 437.02L47.7009 322.954L3.95605 398.722L156.816 486.976L246.353 437.794L335.89 486.976L488.75 398.722L445.005 322.954L246.353 437.02Z" fill="#2E3D5F"/>
<path fill-rule="evenodd" clip-rule="evenodd" d="M246.356 0.667141L246.355 0.664062L89.0994 91.4553H88.918V91.5601L88.9145 91.5621L88.918 91.5682V269.502L0.822266 295.613L0.822711 412.526L170.841 317.851V317.848H170.931V138.91L246.356 95.3639L321.779 138.909V317.848H321.87V317.851L491.888 412.526L491.888 295.613L403.792 269.502V91.5723L403.798 91.5621L403.792 91.5587V91.4553H403.613L246.358 0.664062L246.356 0.667141Z" fill="#8186E8"/>
</svg>
